<svg width="0" height="0" class="hidden">
  <symbol xmlns="http://www.w3.org/2000/svg" viewBox="0 0 48 48"
    id="icons8-github">
    <path fill="#fff"
      d="M41,24c0,9.4-7.6,17-17,17S7,33.4,7,24S14.6,7,24,7S41,14.6,41,24z">
    </path>
    <path fill="#455a64"
      d="M21 41v-5.5c0-.3.2-.5.5-.5s.5.2.5.5V41h2v-6.5c0-.3.2-.5.5-.5s.5.2.5.5V41h2v-5.5c0-.3.2-.5.5-.5s.5.2.5.5V41h1.8c.2-.3.2-.6.2-1.1V36c0-2.2-1.9-5.2-4.3-5.2h-2.5c-2.3 0-4.3 3.1-4.3 5.2v3.9c0 .4.1.8.2 1.1L21 41 21 41zM40.1 26.4C40.1 26.4 40.1 26.4 40.1 26.4c0 0-1.3-.4-2.4-.4 0 0-.1 0-.1 0-1.1 0-2.9.3-2.9.3-.1 0-.1 0-.1-.1 0-.1 0-.1.1-.1.1 0 2-.3 3.1-.3 1.1 0 2.4.4 2.5.4.1 0 .1.1.1.2C40.2 26.3 40.2 26.4 40.1 26.4zM39.8 27.2C39.8 27.2 39.8 27.2 39.8 27.2c0 0-1.4-.4-2.6-.4-.9 0-3 .2-3.1.2-.1 0-.1 0-.1-.1 0-.1 0-.1.1-.1.1 0 2.2-.2 3.1-.2 1.3 0 2.6.4 2.6.4.1 0 .1.1.1.2C39.9 27.1 39.9 27.2 39.8 27.2zM7.8 26.4c-.1 0-.1 0-.1-.1 0-.1 0-.1.1-.2.8-.2 2.4-.5 3.3-.5.8 0 3.5.2 3.6.2.1 0 .1.1.1.1 0 .1-.1.1-.1.1 0 0-2.7-.2-3.5-.2C10.1 26 8.6 26.2 7.8 26.4 7.8 26.4 7.8 26.4 7.8 26.4zM8.2 27.9c0 0-.1 0-.1-.1 0-.1 0-.1 0-.2.1 0 1.4-.8 2.9-1 1.3-.2 4 .1 4.2.1.1 0 .1.1.1.1 0 .1-.1.1-.1.1 0 0 0 0 0 0 0 0-2.8-.3-4.1-.1C9.6 27.1 8.2 27.9 8.2 27.9 8.2 27.9 8.2 27.9 8.2 27.9z">
    </path>
    <path fill="#455a64"
      d="M14.2,23.5c0-4.4,4.6-8.5,10.3-8.5c5.7,0,10.3,4,10.3,8.5S31.5,31,24.5,31S14.2,27.9,14.2,23.5z">
    </path>
    <path fill="#455a64"
      d="M28.6 16.3c0 0 1.7-2.3 4.8-2.3 1.2 1.2.4 4.8 0 5.8L28.6 16.3zM20.4 16.3c0 0-1.7-2.3-4.8-2.3-1.2 1.2-.4 4.8 0 5.8L20.4 16.3zM20.1 35.9c0 0-2.3 0-2.8 0-1.2 0-2.3-.5-2.8-1.5-.6-1.1-1.1-2.3-2.6-3.3-.3-.2-.1-.4.4-.4.5.1 1.4.2 2.1 1.1.7.9 1.5 2 2.8 2 1.3 0 2.7 0 3.5-.9L20.1 35.9z">
    </path>
    <path fill="#00bcd4"
      d="M24,4C13,4,4,13,4,24s9,20,20,20s20-9,20-20S35,4,24,4z M24,40c-8.8,0-16-7.2-16-16S15.2,8,24,8 s16,7.2,16,16S32.8,40,24,40z">
    </path>
  </symbol>

  <symbol xmlns="http://www.w3.org/2000/svg" viewBox="0 0 48 48"
    id="icons8-linkedin">
    <path fill="#0288D1"
      d="M42,37c0,2.762-2.238,5-5,5H11c-2.761,0-5-2.238-5-5V11c0-2.762,2.239-5,5-5h26c2.762,0,5,2.238,5,5V37z">
    </path>
    <path fill="#FFF"
      d="M12 19H17V36H12zM14.485 17h-.028C12.965 17 12 15.888 12 14.499 12 13.08 12.995 12 14.514 12c1.521 0 2.458 1.08 2.486 2.499C17 15.887 16.035 17 14.485 17zM36 36h-5v-9.099c0-2.198-1.225-3.698-3.192-3.698-1.501 0-2.313 1.012-2.707 1.99C24.957 25.543 25 26.511 25 27v9h-5V19h5v2.616C25.721 20.5 26.85 19 29.738 19c3.578 0 6.261 2.25 6.261 7.274L36 36 36 36z">
    </path>
  </symbol>

  <symbol xmlns="http://www.w3.org/2000/svg" viewBox="0 0 48 48"
    id="icons8-telegram-app">
    <path fill="#29b6f6" d="M24 4A20 20 0 1 0 24 44A20 20 0 1 0 24 4Z"></path>
    <path fill="#fff"
      d="M33.95,15l-3.746,19.126c0,0-0.161,0.874-1.245,0.874c-0.576,0-0.873-0.274-0.873-0.274l-8.114-6.733 l-3.97-2.001l-5.095-1.355c0,0-0.907-0.262-0.907-1.012c0-0.625,0.933-0.923,0.933-0.923l21.316-8.468 c-0.001-0.001,0.651-0.235,1.126-0.234C33.667,14,34,14.125,34,14.5C34,14.75,33.95,15,33.95,15z">
    </path>
    <path fill="#b0bec5"
      d="M23,30.505l-3.426,3.374c0,0-0.149,0.115-0.348,0.12c-0.069,0.002-0.143-0.009-0.219-0.043 l0.964-5.965L23,30.505z">
    </path>
    <path fill="#cfd8dc"
      d="M29.897,18.196c-0.169-0.22-0.481-0.26-0.701-0.093L16,26c0,0,2.106,5.892,2.427,6.912 c0.322,1.021,0.58,1.045,0.58,1.045l0.964-5.965l9.832-9.096C30.023,18.729,30.064,18.416,29.897,18.196z">
    </path>
  </symbol>

  <symbol xmlns="http://www.w3.org/2000/svg" viewBox="0 0 48 48"
    id="icons8-discord">
    <path fill="#8c9eff"
      d="M42,45l-9-7.001L34,41H10c-2.761,0-5-2.238-5-5V10c0-2.762,2.239-5,5-5h27c2.762,0,5,2.238,5,5V45z">
    </path>
    <path fill="#fff"
      d="M32.59,16.24c0,0-2.6-2.01-5.68-2.24l-0.27,0.55c2.78,0.67,4.05,1.64,5.38,2.83 C29.73,16.21,27.46,15,23.5,15s-6.23,1.21-8.52,2.38c1.33-1.19,2.85-2.27,5.38-2.83L20.09,14c-3.23,0.31-5.68,2.24-5.68,2.24 S11.5,20.43,11,28.62c2.94,3.36,7.39,3.38,7.39,3.38l0.92-1.23c-1.57-0.54-3.36-1.51-4.9-3.27c1.84,1.38,4.61,2.5,9.09,2.5 s7.25-1.12,9.09-2.5c-1.54,1.76-3.33,2.73-4.9,3.27L28.61,32c0,0,4.45-0.02,7.39-3.38C35.5,20.43,32.59,16.24,32.59,16.24z M20,27 c-1.1,0-2-1.12-2-2.5s0.9-2.5,2-2.5s2,1.12,2,2.5S21.1,27,20,27z M27,27c-1.1,0-2-1.12-2-2.5s0.9-2.5,2-2.5s2,1.12,2,2.5 S28.1,27,27,27z">
    </path>
  </symbol>

  <symbol id="rss" xmlns="http://www.w3.org/2000/svg"
    xmlns:xlink="http://www.w3.org/1999/xlink" viewBox="0 0 552.8 205.3">
    <path
      d="m285.4 68 26.3-1.7c.6 4.3 1.7 7.5 3.5 9.8 2.9 3.6 6.9 5.4 12.2 5.4 3.9 0 7-.9 9.1-2.8 2-1.5 3.2-3.9 3.2-6.4 0-2.4-1.1-4.7-3-6.2-2-1.8-6.7-3.6-14.1-5.2-12.1-2.7-20.8-6.3-25.9-10.9-5.1-4.3-8-10.6-7.8-17.3 0-4.6 1.4-9.2 4-13 3-4.3 7.1-7.7 12-9.6 5.3-2.3 12.7-3.5 22-3.5 11.4 0 20.1 2.1 26.1 6.4 6 4.2 9.6 11 10.7 20.3l-26 1.5c-.7-4-2.1-6.9-4.4-8.8s-5.3-2.8-9.2-2.8c-3.2 0-5.6.7-7.2 2-1.5 1.2-2.5 3-2.4 5 0 1.5.8 2.9 2 3.8 1.3 1.2 4.4 2.3 9.3 3.3 12.1 2.6 20.7 5.2 26 7.9 5.3 2.7 9.1 6 11.4 9.9 2.4 4 3.6 8.6 3.5 13.3 0 5.6-1.6 11.2-4.8 15.9-3.3 4.9-7.9 8.7-13.3 11-5.7 2.5-12.9 3.8-21.5 3.8-15.2 0-25.7-2.9-31.6-8.8S286.1 77 285.4 68zM6.3 97.6V8.2h46.1c8.5 0 15.1.7 19.6 2.2 4.4 1.4 8.3 4.3 10.9 8.2 2.9 4.3 4.3 9.3 4.2 14.5.3 8.8-4.2 17.2-11.9 21.6-3 1.7-6.3 2.9-9.7 3.5 2.5.7 5 1.9 7.2 3.3 1.7 1.4 3.1 3 4.4 4.7 1.5 1.7 2.8 3.6 3.9 5.6l13.4 25.9H63L48.2 70.2c-1.9-3.5-3.5-5.8-5-6.9-2-1.4-4.4-2.1-6.8-2.1H34v36.3H6.3zM34 44.4h11.7c2.5-.2 4.9-.6 7.3-1.2 1.8-.3 3.4-1.3 4.5-2.8 2.7-3.6 2.3-8.7-1-11.8-1.8-1.5-5.3-2.3-10.3-2.3H34v18.1zM0 174.2l26.3-1.7c.6 4.3 1.7 7.5 3.5 9.8 2.8 3.6 6.9 5.5 12.2 5.5 3.9 0 7-.9 9.1-2.8 2-1.6 3.2-3.9 3.2-6.4 0-2.4-1.1-4.7-3-6.2-2-1.8-6.7-3.6-14.2-5.2-12.1-2.7-20.8-6.3-25.9-10.9-5.1-4.3-8-10.6-7.8-17.3 0-4.6 1.4-9.2 4-13 3-4.3 7.1-7.7 12-9.6 5.3-2.3 12.7-3.5 22-3.5 11.4 0 20.1 2.1 26.1 6.4s9.5 11 10.6 20.3l-26 1.5c-.7-4-2.1-6.9-4.4-8.8-2.2-1.9-5.3-2.8-9.2-2.7-3.2 0-5.6.7-7.2 2.1-1.6 1.2-2.5 3-2.4 5 0 1.5.8 2.9 2 3.8 1.3 1.2 4.4 2.3 9.3 3.3 12.1 2.6 20.7 5.2 26 7.9 5.3 2.7 9.1 6 11.4 9.9 2.4 4 3.6 8.6 3.6 13.2 0 5.6-1.7 11.1-4.8 15.8-3.3 4.9-7.9 8.7-13.3 11-5.7 2.5-12.9 3.8-21.5 3.8-15.2 0-25.7-2.9-31.6-8.8-5.9-6-9.2-13.4-10-22.4z">
    </path>
    <path
      d="m133 167.2 24.2 7.3c-1.3 6.1-4 11.9-7.7 17-3.4 4.5-7.9 8-13 10.3-5.2 2.3-11.8 3.5-19.8 3.5-9.7 0-17.7-1.4-23.8-4.2-6.2-2.8-11.5-7.8-16-14.9-4.5-7.1-6.7-16.2-6.7-27.3 0-14.8 3.9-26.2 11.8-34.1s19-11.9 33.4-11.9c11.3 0 20.1 2.3 26.6 6.8 6.4 4.6 11.2 11.6 14.4 21l-24.4 5.4c-.6-2.1-1.5-4.2-2.7-6-1.5-2.1-3.4-3.7-5.7-4.9-2.3-1.2-4.9-1.7-7.5-1.7-6.3 0-11.1 2.5-14.4 7.6-2.5 3.7-3.8 9.6-3.8 17.6 0 9.9 1.5 16.7 4.5 20.4 3 3.7 7.2 5.5 12.7 5.5 5.3 0 9.3-1.5 12-4.4 2.7-3.1 4.7-7.4 5.9-13zm56.5-52.8h27.6v31.3h30.2v-31.3h27.8v89.4h-27.8v-36.2h-30.2v36.2h-27.6v-89.4z">
    </path>
    <path
      d="M271.3 159.1c0-14.6 4.1-26 12.2-34.1 8.1-8.1 19.5-12.2 34-12.2 14.9 0 26.3 4 34.4 12S364 144 364 158.4c0 10.5-1.8 19-5.3 25.7-3.4 6.6-8.7 12-15.2 15.6-6.7 3.7-15 5.6-24.9 5.6-10.1 0-18.4-1.6-25-4.8-6.8-3.4-12.4-8.7-16.1-15.2-4.1-7-6.2-15.7-6.2-26.2zm27.6.1c0 9 1.7 15.5 5 19.5 3.3 3.9 7.9 5.9 13.7 5.9 5.9 0 10.5-1.9 13.8-5.8s4.9-10.8 4.9-20.8c0-8.4-1.7-14.6-5.1-18.4-3.4-3.9-8-5.8-13.8-5.8-5.1-.2-10 2-13.4 5.9-3.4 3.9-5.1 10.4-5.1 19.5zm93.4-.1c0-14.6 4.1-26 12.2-34.1 8.1-8.1 19.5-12.2 34-12.2 14.9 0 26.4 4 34.4 12S485 144 485 158.4c0 10.5-1.8 19-5.3 25.7-3.4 6.6-8.7 12-15.2 15.6-6.7 3.7-15 5.6-24.9 5.6-10.1 0-18.4-1.6-25-4.8-6.8-3.4-12.4-8.7-16.1-15.2-4.1-7-6.2-15.7-6.2-26.2zm27.6.1c0 9 1.7 15.5 5 19.5 3.3 3.9 7.9 5.9 13.7 5.9 5.9 0 10.5-1.9 13.8-5.8 3.3-3.9 4.9-10.8 4.9-20.8 0-8.4-1.7-14.6-5.1-18.4-3.4-3.9-8-5.8-13.8-5.8-5.1-.2-10.1 2-13.4 5.9-3.4 3.9-5.1 10.4-5.1 19.5z">
    </path>
    <path d="M482.1 114.4h27.6v67.4h43.1v22H482v-89.4z"></path>
    <ellipse transform="rotate(-37.001 420.46 67.88)" cx="420.5" cy="67.9"
      rx="63" ry="51.8"></ellipse>
    <defs>
      <ellipse id="SVGID_1_" transform="rotate(-37.001 420.46 67.88)" cx="420.5"
        cy="67.9" rx="63" ry="51.8"></ellipse>
    </defs>
    <clipPath id="SVGID_2_">
      <use xlink:href="#SVGID_1_" overflow="visible"></use>
    </clipPath>
    <g>
      <path transform="rotate(-37.001 420.82 68.353)"
        d="M330.9-14.2h179.8v165.1H330.9z"></path>
      <g id="Layer_2_1_">
        <defs>
          <path id="SVGID_3_" transform="rotate(-37.001 420.82 68.353)"
            d="M330.9-14.2h179.8v165.1H330.9z"></path>
        </defs>
        <clipPath id="SVGID_4_">
          <use xlink:href="#SVGID_3_" overflow="visible"></use>
        </clipPath>
        <g id="Layer_1-2">
          <ellipse transform="rotate(-37.001 420.46 67.88)" cx="420.5" cy="67.9"
            rx="63" ry="51.8"></ellipse>
          <defs>
            <ellipse id="SVGID_5_" transform="rotate(-37.001 420.46 67.88)"
              cx="420.5" cy="67.9" rx="63" ry="51.8"></ellipse>
          </defs>
          <clipPath id="SVGID_6_">
            <use xlink:href="#SVGID_5_" overflow="visible"></use>
          </clipPath>
          <g>
            <path transform="rotate(-37 420.799 68.802)"
              d="M357.8 17h125.9v103.7H357.8z"></path>
            <defs>
              <path id="SVGID_7_" transform="rotate(-37 420.799 68.802)"
                d="M357.8 17h125.9v103.7H357.8z"></path>
            </defs>
            <clipPath id="SVGID_8_">
              <use xlink:href="#SVGID_7_" overflow="visible"></use>
            </clipPath>
            <ellipse transform="rotate(-37.001 420.46 67.88)" cx="420.5"
              cy="67.9" rx="63" ry="51.8"></ellipse>
            <path transform="rotate(-37 420.799 68.802)"
              d="M357.8 17h125.9v103.7H357.8z"></path>
            <ellipse transform="rotate(-37.001 420.46 67.88)" cx="420.5"
              cy="67.9" rx="63" ry="51.8"></ellipse>
            <path transform="rotate(-37 420.799 68.802)"
              d="M357.8 17h125.9v103.7H357.8z"></path>
            <defs>
              <path id="SVGID_9_" transform="rotate(-37 420.799 68.802)"
                d="M357.8 17h125.9v103.7H357.8z"></path>
            </defs>
            <clipPath id="SVGID_10_">
              <use xlink:href="#SVGID_9_" overflow="visible"></use>
            </clipPath>
            <ellipse transform="rotate(-37.001 420.46 67.88)" cx="420.5"
              cy="67.9" rx="63" ry="51.8"></ellipse>
            <path transform="rotate(-37 420.799 68.802)"
              d="M357.8 17h125.9v103.7H357.8z"></path>
            <path transform="rotate(-37.001 420.82 68.353)"
              d="M330.9-14.2h179.8v165.1H330.9z"></path>
          </g>
          <ellipse transform="rotate(-37.001 420.46 67.88)" cx="420.5" cy="67.9"
            rx="63" ry="51.8"></ellipse>
          <path
            d="m392.4 61.3 10-7 12.3 17.5c2.1 2.8 3.7 5.8 4.9 9.1.7 2.5.5 5.2-.5 7.6-1.3 3-3.4 5.5-6.2 7.3-3.3 2.3-6.1 3.6-8.5 4-2.3.4-4.7 0-6.9-1-2.4-1.2-4.5-2.9-6.1-5.1l8.6-8c.7 1.1 1.6 2.1 2.6 2.9.7.5 1.5.8 2.4.8.7 0 1.4-.3 1.9-.7 1-.6 1.7-1.8 1.6-3-.3-1.7-1-3.4-2.1-4.7l-14-19.7zm30 11.1 9.1-7.2c1 1.2 2.3 2.1 3.7 2.6 2 .6 4.1.2 5.8-1.1 1.2-.8 2.2-1.9 2.6-3.3.6-1.8-.4-3.8-2.2-4.4-.3-.1-.6-.2-.9-.2-1.2-.1-3.3.4-6.4 1.7-5.1 2.1-9.1 2.9-12.1 2.6-2.9-.3-5.6-1.8-7.2-4.3-1.2-1.7-1.8-3.7-1.9-5.7 0-2.3.6-4.6 1.9-6.5 1.9-2.7 4.2-5 7-6.8 4.2-2.9 7.9-4.3 11.1-4.3 3.2 0 6.2 1.5 9 4.6l-9 7.1c-1.8-2.3-5.2-2.8-7.5-1l-.3.3c-1 .6-1.7 1.5-2.1 2.6-.3.8-.1 1.7.4 2.4.4.5 1 .9 1.7.9.8.1 2.2-.3 4.2-1.2 5-2.1 8.8-3.3 11.4-3.7 2.2-.4 4.5-.2 6.6.7 1.9.8 3.5 2.2 4.6 3.9 1.4 2 2.2 4.4 2.3 6.9.1 2.6-.6 5.1-2 7.3-1.8 2.7-4.1 5-6.8 6.8-5.5 3.8-10 5.4-13.6 4.8-3.9-.6-7.1-2.6-9.4-5.5z">
          </path>
        </g>
      </g>
    </g>
  </symbol>
</svg>